<svg xmlns="http://www.w3.org/2000/svg" width="1200" height="900" viewBox="0 0 1200 900" fill="none">
  <rect width="1200" height="900" rx="48" fill="#EEF4FF"/>
  <rect x="82" y="86" width="1036" height="728" rx="40" fill="#fff" stroke="#D8E4FA" stroke-width="4"/>
  <rect x="124" y="128" width="262" height="644" rx="28" fill="#12233D"/>
  <rect x="156" y="176" width="198" height="54" rx="18" fill="#2F6FED"/>
  <rect x="156" y="264" width="198" height="18" rx="9" fill="#324B73"/>
  <rect x="156" y="304" width="162" height="18" rx="9" fill="#324B73"/>
  <rect x="156" y="344" width="178" height="18" rx="9" fill="#324B73"/>
  <rect x="156" y="432" width="198" height="154" rx="24" fill="#1B355E"/>
  <text x="182" y="482" fill="#fff" font-family="Arial, sans-serif" font-size="24" font-weight="700">Live score</text>
  <text x="182" y="544" fill="#fff" font-family="Arial, sans-serif" font-size="54" font-weight="700">92%</text>
  <text x="182" y="580" fill="#C7DBFF" font-family="Arial, sans-serif" font-size="18">Retention target</text>
  <rect x="430" y="128" width="646" height="170" rx="30" fill="#F8FBFF" stroke="#DEE8F8" stroke-width="3"/>
  <text x="470" y="178" fill="#163C82" font-family="Arial, sans-serif" font-size="28" font-weight="700">Launch dashboard</text>
  <rect x="470" y="208" width="190" height="18" rx="9" fill="#D8E6FF"/>
  <rect x="470" y="246" width="132" height="18" rx="9" fill="#E8F0FF"/>
  <rect x="722" y="166" width="314" height="86" rx="22" fill="#2F6FED"/>
  <text x="754" y="204" fill="#fff" font-family="Arial, sans-serif" font-size="20">Launch readiness</text>
  <text x="754" y="236" fill="#fff" font-family="Arial, sans-serif" font-size="40" font-weight="700">8.7 / 10</text>
  <rect x="430" y="330" width="402" height="214" rx="30" fill="#F8FBFF" stroke="#DEE8F8" stroke-width="3"/>
  <text x="470" y="374" fill="#163C82" font-family="Arial, sans-serif" font-size="24" font-weight="700">Acquisition sources</text>
  <path d="M472 494c50-40 96-54 136-34 42 20 77 22 122-8 22-14 46-28 74-30" stroke="#2F6FED" stroke-width="10" stroke-linecap="round"/>
  <path d="M472 514c58-18 102-16 132 8 28 22 58 28 100 18 30-8 63-28 100-64" stroke="#A7C5FF" stroke-width="10" stroke-linecap="round"/>
  <circle cx="472" cy="494" r="10" fill="#2F6FED"/>
  <circle cx="804" cy="422" r="10" fill="#2F6FED"/>
  <rect x="854" y="330" width="222" height="214" rx="30" fill="#1F55C7"/>
  <text x="892" y="382" fill="#fff" font-family="Arial, sans-serif" font-size="24" font-weight="700">Tasks due</text>
  <text x="892" y="450" fill="#fff" font-family="Arial, sans-serif" font-size="60" font-weight="700">14</text>
  <text x="892" y="490" fill="#D8E6FF" font-family="Arial, sans-serif" font-size="20">Approvals pending</text>
  <rect x="430" y="576" width="646" height="196" rx="30" fill="#F8FBFF" stroke="#DEE8F8" stroke-width="3"/>
  <text x="470" y="622" fill="#163C82" font-family="Arial, sans-serif" font-size="24" font-weight="700">Milestone timeline</text>
  <rect x="470" y="666" width="126" height="20" rx="10" fill="#2F6FED"/>
  <rect x="612" y="666" width="158" height="20" rx="10" fill="#8CB4FF"/>
  <rect x="786" y="666" width="98" height="20" rx="10" fill="#D8E6FF"/>
  <rect x="900" y="666" width="132" height="20" rx="10" fill="#C4D9FF"/>
  <circle cx="533" cy="722" r="12" fill="#2F6FED"/>
  <circle cx="691" cy="722" r="12" fill="#7DAAF8"/>
  <circle cx="835" cy="722" r="12" fill="#1F55C7"/>
  <circle cx="972" cy="722" r="12" fill="#A7C5FF"/>
</svg>
