<svg xmlns="http://www.w3.org/2000/svg" width="1200" height="900" viewBox="0 0 1200 900" fill="none">
  <rect width="1200" height="900" rx="48" fill="#F4F8FF"/>
  <rect x="90" y="98" width="1020" height="704" rx="40" fill="#fff" stroke="#DAE5FB" stroke-width="4"/>
  <rect x="136" y="144" width="928" height="98" rx="28" fill="#F8FBFF" stroke="#E2ECFB" stroke-width="3"/>
  <rect x="182" y="176" width="160" height="22" rx="11" fill="#D8E6FF"/>
  <rect x="780" y="164" width="236" height="56" rx="20" fill="#2F6FED"/>
  <text x="826" y="200" fill="#fff" font-family="Arial, sans-serif" font-size="22" font-weight="700">Go live ready</text>
  <rect x="136" y="276" width="298" height="478" rx="32" fill="#102242"/>
  <rect x="180" y="330" width="210" height="128" rx="24" fill="#2F6FED"/>
  <text x="208" y="382" fill="#fff" font-family="Arial, sans-serif" font-size="22" font-weight="700">Signups</text>
  <text x="208" y="434" fill="#fff" font-family="Arial, sans-serif" font-size="56" font-weight="700">12.4k</text>
  <rect x="180" y="502" width="210" height="18" rx="9" fill="#446189"/>
  <rect x="180" y="538" width="164" height="18" rx="9" fill="#446189"/>
  <rect x="180" y="574" width="190" height="18" rx="9" fill="#446189"/>
  <rect x="470" y="276" width="594" height="220" rx="32" fill="#F8FBFF" stroke="#E2ECFB" stroke-width="3"/>
  <text x="514" y="334" fill="#163C82" font-family="Arial, sans-serif" font-size="28" font-weight="700">Launch performance</text>
  <path d="M516 434c42-22 78-38 118-32 34 6 62 26 102 26 34 0 68-14 100-36 24-16 52-30 98-34 40-4 72 12 102 42" stroke="#2F6FED" stroke-width="10" stroke-linecap="round"/>
  <rect x="470" y="534" width="284" height="220" rx="32" fill="#1F55C7"/>
  <text x="510" y="590" fill="#fff" font-family="Arial, sans-serif" font-size="24" font-weight="700">Release checklist</text>
  <rect x="510" y="628" width="196" height="18" rx="9" fill="#D8E6FF"/>
  <rect x="510" y="664" width="160" height="18" rx="9" fill="#BFD4FF"/>
  <rect x="780" y="534" width="284" height="220" rx="32" fill="#F8FBFF" stroke="#E2ECFB" stroke-width="3"/>
  <text x="820" y="590" fill="#163C82" font-family="Arial, sans-serif" font-size="24" font-weight="700">Risk watch</text>
  <rect x="820" y="628" width="198" height="18" rx="9" fill="#D8E6FF"/>
  <rect x="820" y="664" width="146" height="18" rx="9" fill="#E8F0FF"/>
</svg>
