<svg xmlns="http://www.w3.org/2000/svg" width="900" height="1200" viewBox="0 0 900 1200" fill="none">
  <rect width="900" height="1200" rx="48" fill="#F3F8FF"/>
  <rect x="116" y="92" width="668" height="1016" rx="42" fill="#102242"/>
  <rect x="154" y="154" width="592" height="922" rx="32" fill="#F8FBFF"/>
  <text x="206" y="228" fill="#163C82" font-family="Arial, sans-serif" font-size="34" font-weight="700">Campaign summary</text>
  <rect x="206" y="264" width="182" height="20" rx="10" fill="#D8E6FF"/>
  <rect x="206" y="322" width="488" height="208" rx="30" fill="#2F6FED"/>
  <text x="244" y="386" fill="#fff" font-family="Arial, sans-serif" font-size="28" font-weight="700">This week</text>
  <text x="244" y="468" fill="#fff" font-family="Arial, sans-serif" font-size="82" font-weight="700">5,620</text>
  <text x="244" y="512" fill="#D8E6FF" font-family="Arial, sans-serif" font-size="22">Waitlist signups</text>
  <rect x="206" y="570" width="228" height="176" rx="26" fill="#F8FBFF" stroke="#E2ECFB" stroke-width="3"/>
  <rect x="466" y="570" width="228" height="176" rx="26" fill="#F8FBFF" stroke="#E2ECFB" stroke-width="3"/>
  <rect x="206" y="792" width="488" height="188" rx="30" fill="#F8FBFF" stroke="#E2ECFB" stroke-width="3"/>
  <path d="M246 930c44-22 82-30 116-18 30 10 54 10 88-10 28-16 56-38 100-44 36-4 72 10 104 38" stroke="#2F6FED" stroke-width="10" stroke-linecap="round"/>
</svg>
